# xmcd
#
# Track frame offsets:
#	150
#	14375
#	28950
#	47337
#	64425
#	75537
#	89550
#	106700
#	119712
#	135735
#
# Disc length: 2000 seconds
#
# Revision: 1
# Processed by: cddbd v1.5PL3 Copyright (c) Steve Scherf et al.
# Submitted via: audiograbber 1.83.01
#
DISCID=8507ce0a
DTITLE=Various Artist - Country Classics, Volume 2
DYEAR=1996
DGENRE=Country
TTITLE0=Steve Wariner - What I Didn't Do
TTITLE1=John Schneider - Country Girls
TTITLE2=Lionel Cartwright - Leap of Faith
TTITLE3=McBride and The Ride - Just One Night
TTITLE4=Patty Loveless - A Little Bit in Love
TTITLE5=Mark Chesnutt - Brother Jukebox
TTITLE6=Steve Earle and The Dukes - Someday
TTITLE7=Oak Ridge Boys - No Matter How High
TTITLE8=John Anderson - Down in the Orange Grove
TTITLE9=Mark Collie - Born to Love You
EXTD=MCA Records MCAD 20968
EXTT0=
EXTT1=
EXTT2=
EXTT3=
EXTT4=
EXTT5=
EXTT6=
EXTT7=
EXTT8=
EXTT9=
PLAYORDER=
